<svg 
 xmlns="http://www.w3.org/2000/svg"
 xmlns:xlink="http://www.w3.org/1999/xlink"
 width="204px" height="127px">
<path fill-rule="evenodd"  fill="rgb(52, 52, 52)"
 d="M100.345,38.637 C100.997,39.758 101.648,40.879 102.300,42.001 C97.449,44.820 92.745,47.855 88.200,51.092 C84.877,46.428 81.555,41.764 78.233,37.099 C83.120,33.618 88.174,30.352 93.384,27.312 C94.000,28.368 94.616,29.425 95.232,30.481 C92.031,32.348 88.889,34.303 85.811,36.343 C86.313,37.101 86.816,37.860 87.318,38.619 C90.134,36.754 93.004,34.960 95.924,33.240 C96.516,34.247 97.109,35.253 97.702,36.259 C94.835,37.948 92.018,39.709 89.253,41.540 C89.877,42.481 90.500,43.422 91.124,44.364 C94.135,42.369 97.210,40.459 100.345,38.637 ZM80.461,46.023 C81.553,47.499 82.197,48.793 82.405,49.899 C82.614,51.006 82.578,52.092 82.305,53.160 C82.031,54.229 81.580,55.153 80.947,55.940 C80.082,57.018 79.235,57.903 78.392,58.594 C76.049,60.516 73.755,62.495 71.514,64.530 C67.665,60.290 63.816,56.049 59.968,51.809 C62.422,49.581 64.932,47.415 67.497,45.310 C69.015,44.066 70.391,43.246 71.600,42.837 C72.809,42.428 73.967,42.306 75.065,42.464 C76.164,42.622 77.164,43.022 78.066,43.656 C78.968,44.289 79.765,45.080 80.461,46.023 ZM76.891,52.657 C76.755,51.981 76.263,51.103 75.409,50.025 C74.278,48.599 73.220,47.846 72.228,47.780 C71.238,47.714 70.076,48.218 68.769,49.307 C68.350,49.657 67.932,50.008 67.516,50.361 C69.539,52.748 71.563,55.134 73.586,57.521 C73.976,57.191 74.366,56.862 74.758,56.535 C75.762,55.699 76.405,55.018 76.681,54.479 C76.956,53.940 77.026,53.333 76.891,52.657 ZM65.409,70.334 C64.509,69.897 63.605,69.464 62.698,69.036 C61.043,70.702 59.421,72.400 57.831,74.128 C58.305,75.008 58.784,75.885 59.267,76.759 C57.870,78.293 56.500,79.852 55.156,81.434 C53.668,83.185 52.213,84.965 50.792,86.773 C48.743,86.548 46.682,86.354 44.609,86.192 C43.810,86.122 43.227,86.163 42.863,86.310 C42.377,86.517 41.960,86.855 41.617,87.322 C41.506,87.473 41.395,87.624 41.285,87.775 C43.162,89.146 45.039,90.517 46.916,91.888 C45.707,93.543 44.525,95.220 43.371,96.917 C38.635,93.698 33.899,90.479 29.163,87.260 C31.258,84.177 33.438,81.157 35.699,78.202 C36.957,76.558 38.054,75.407 38.956,74.733 C39.859,74.059 40.820,73.709 41.829,73.683 C42.839,73.657 43.762,74.001 44.601,74.701 C45.333,75.312 45.804,76.030 46.022,76.851 C46.240,77.673 46.243,78.550 46.038,79.486 C45.907,80.082 45.615,80.806 45.168,81.660 C45.805,81.196 46.315,80.898 46.696,80.761 C46.952,80.668 47.399,80.593 48.035,80.542 C48.672,80.491 49.133,80.490 49.420,80.535 C51.336,80.804 53.241,81.099 55.135,81.419 C52.379,75.831 49.812,70.099 47.445,64.232 C49.094,62.444 50.775,60.687 52.488,58.961 C58.462,61.071 64.311,63.387 70.022,65.899 C68.459,67.350 66.921,68.829 65.409,70.334 ZM40.816,80.069 C40.379,79.728 39.909,79.637 39.408,79.799 C38.908,79.961 38.290,80.519 37.567,81.478 C36.987,82.248 36.412,83.022 35.843,83.801 C36.784,84.487 37.724,85.174 38.664,85.861 C39.200,85.127 39.741,84.397 40.287,83.671 C40.465,83.435 40.745,82.933 41.137,82.165 C41.342,81.782 41.413,81.395 41.352,81.003 C41.290,80.611 41.112,80.299 40.816,80.069 ZM53.104,64.710 C54.060,66.689 55.036,68.654 56.031,70.604 C57.055,69.508 58.091,68.424 59.140,67.353 C57.142,66.451 55.130,65.570 53.104,64.710 ZM27.386,97.857 C31.070,100.099 34.754,102.341 38.438,104.583 C37.373,106.332 36.337,108.101 35.330,109.889 C31.572,107.773 27.815,105.657 24.057,103.541 C22.957,105.495 21.889,107.469 20.855,109.464 C19.600,108.814 18.344,108.163 17.089,107.512 C20.238,101.436 23.690,95.545 27.425,89.859 C28.607,90.636 29.789,91.412 30.971,92.189 C29.745,94.056 28.549,95.945 27.386,97.857 Z"/>
<path fill-rule="evenodd"  fill="rgb(52, 52, 52)"
 d="M182.020,85.612 C181.074,86.740 179.466,87.468 177.210,87.762 C176.189,87.895 175.168,88.022 174.146,88.144 C174.397,90.254 174.648,92.364 174.900,94.474 C172.982,94.702 171.062,94.911 169.141,95.100 C168.580,89.401 168.020,83.702 167.459,78.003 C170.446,77.709 173.429,77.365 176.407,76.970 C178.352,76.712 179.870,76.951 180.977,77.710 C182.084,78.469 182.773,79.677 183.032,81.345 C183.299,83.058 182.967,84.483 182.020,85.612 ZM176.988,80.983 C176.569,80.660 175.852,80.566 174.834,80.693 C174.317,80.758 173.799,80.821 173.282,80.883 C173.433,82.151 173.584,83.419 173.735,84.688 C174.186,84.634 174.638,84.579 175.089,84.523 C176.155,84.391 176.880,84.116 177.263,83.707 C177.646,83.298 177.799,82.817 177.725,82.268 C177.653,81.733 177.407,81.306 176.988,80.983 ZM158.199,78.752 C160.005,78.637 161.809,78.504 163.612,78.353 C164.091,84.060 164.569,89.766 165.047,95.473 C163.128,95.634 161.208,95.775 159.286,95.897 C158.924,90.182 158.561,84.467 158.199,78.752 ZM150.062,96.331 C148.679,94.018 147.329,91.694 146.010,89.361 C145.059,90.335 144.097,91.304 143.126,92.268 C143.135,93.666 143.144,95.063 143.153,96.460 C141.232,96.473 139.310,96.466 137.389,96.440 C137.468,90.714 137.546,84.988 137.625,79.262 C139.430,79.286 141.236,79.293 143.041,79.281 C143.055,81.445 143.069,83.609 143.083,85.773 C145.006,83.597 146.882,81.400 148.712,79.184 C151.112,79.117 153.511,79.018 155.908,78.887 C153.898,81.162 151.834,83.414 149.719,85.642 C152.109,89.135 154.587,92.597 157.152,96.024 C154.790,96.156 152.426,96.259 150.062,96.331 ZM126.551,84.513 C128.940,85.142 130.657,85.712 131.690,86.261 C132.724,86.809 133.473,87.465 133.935,88.235 C134.396,89.006 134.619,89.859 134.597,90.796 C134.570,91.897 134.221,92.905 133.540,93.817 C132.859,94.728 131.916,95.405 130.712,95.841 C129.509,96.277 127.998,96.454 126.191,96.358 C123.015,96.188 120.855,95.462 119.728,94.248 C118.600,93.034 118.038,91.550 118.026,89.809 C119.823,89.854 121.619,89.881 123.413,89.891 C123.477,90.717 123.674,91.356 124.007,91.807 C124.548,92.538 125.367,92.935 126.458,92.993 C127.271,93.036 127.907,92.888 128.363,92.553 C128.819,92.218 129.056,91.816 129.077,91.348 C129.096,90.903 128.905,90.496 128.506,90.125 C128.107,89.755 127.162,89.380 125.675,88.983 C123.240,88.321 121.539,87.498 120.564,86.555 C119.579,85.611 119.150,84.465 119.259,83.126 C119.331,82.246 119.663,81.437 120.250,80.696 C120.837,79.954 121.671,79.399 122.750,79.024 C123.829,78.648 125.276,78.518 127.098,78.616 C129.333,78.734 131.019,79.207 132.172,80.063 C133.323,80.919 133.994,82.235 134.175,84.022 C132.440,84.074 130.703,84.109 128.965,84.128 C128.862,83.349 128.599,82.774 128.176,82.402 C127.754,82.029 127.157,81.824 126.384,81.781 C125.748,81.746 125.262,81.848 124.923,82.089 C124.585,82.331 124.404,82.639 124.380,83.013 C124.363,83.286 124.481,83.540 124.736,83.774 C124.981,84.016 125.586,84.265 126.551,84.513 Z"/>
<path fill-rule="evenodd"  fill="rgb(52, 52, 52)"
 d="M177.232,28.103 C176.987,30.489 176.742,32.875 176.497,35.261 C174.462,35.052 172.424,34.878 170.385,34.738 C170.550,32.345 170.714,29.952 170.878,27.559 C168.440,24.056 165.859,20.600 163.135,17.199 C165.612,17.264 168.088,17.375 170.562,17.532 C171.892,19.552 173.178,21.586 174.422,23.632 C175.998,21.828 177.616,20.043 179.275,18.279 C181.730,18.544 184.181,18.854 186.628,19.211 C183.361,22.098 180.228,25.065 177.232,28.103 ZM160.138,30.255 C159.755,31.152 159.168,31.935 158.381,32.608 C157.594,33.282 156.778,33.759 155.926,34.042 C154.741,34.438 153.324,34.656 151.664,34.713 C150.704,34.747 149.655,34.732 148.514,34.674 C147.373,34.616 146.410,34.444 145.621,34.149 C144.832,33.855 144.095,33.415 143.405,32.827 C142.715,32.240 142.219,31.621 141.922,30.964 C141.443,29.909 141.161,28.963 141.085,28.123 C140.780,24.725 140.475,21.326 140.170,17.928 C142.386,17.729 144.605,17.568 146.826,17.443 C147.022,20.931 147.217,24.418 147.412,27.906 C147.465,28.841 147.814,29.554 148.453,30.049 C149.092,30.544 149.949,30.766 151.030,30.726 C152.103,30.686 152.936,30.404 153.536,29.870 C154.136,29.337 154.431,28.596 154.414,27.644 C154.348,24.152 154.283,20.659 154.217,17.167 C156.441,17.125 158.666,17.121 160.891,17.153 C160.840,20.565 160.790,23.976 160.739,27.388 C160.724,28.403 160.521,29.358 160.138,30.255 ZM136.472,34.783 C135.991,35.100 135.243,35.379 134.231,35.630 C132.885,35.966 131.992,36.176 131.547,36.241 C128.063,36.753 124.592,37.366 121.138,38.081 C119.977,32.474 118.816,26.866 117.655,21.258 C121.755,20.409 125.877,19.691 130.014,19.104 C132.084,18.811 133.730,19.023 134.928,19.708 C136.128,20.394 136.783,21.346 136.914,22.550 C137.023,23.560 136.730,24.467 136.048,25.276 C135.594,25.816 134.895,26.283 133.955,26.686 C135.475,26.793 136.623,27.177 137.395,27.820 C138.168,28.462 138.605,29.331 138.718,30.419 C138.810,31.305 138.649,32.126 138.245,32.885 C137.840,33.643 137.249,34.274 136.472,34.783 ZM129.896,23.064 C129.458,22.843 128.745,22.805 127.759,22.959 C126.802,23.109 125.846,23.266 124.891,23.430 C125.075,24.500 125.259,25.571 125.443,26.641 C126.368,26.482 127.294,26.330 128.221,26.185 C129.218,26.029 129.891,25.786 130.242,25.447 C130.593,25.108 130.732,24.672 130.656,24.138 C130.586,23.643 130.333,23.284 129.896,23.064 ZM131.562,29.460 C131.080,29.217 130.286,29.174 129.185,29.344 C128.121,29.508 127.058,29.681 125.996,29.863 C126.192,31.007 126.389,32.150 126.585,33.293 C127.632,33.114 128.680,32.943 129.729,32.781 C130.791,32.618 131.518,32.351 131.910,31.967 C132.302,31.585 132.463,31.123 132.388,30.581 C132.319,30.078 132.045,29.704 131.562,29.460 Z"/>
</svg>