<?xml version="1.0" encoding="UTF-8" standalone="no"?>
<svg
   xmlns:dc="http://purl.org/dc/elements/1.1/"
   xmlns:cc="http://creativecommons.org/ns#"
   xmlns:rdf="http://www.w3.org/1999/02/22-rdf-syntax-ns#"
   xmlns:svg="http://www.w3.org/2000/svg"
   xmlns="http://www.w3.org/2000/svg"
   id="svg2"
   viewBox="0 0 744.09 1052.4"
   version="1.1">
  <defs
     id="defs156" />
  <g
     id="layer1">
    <path
       id="path3759"
       style="stroke:#000000;stroke-width:25;fill:none"
       transform="matrix(.5 .86603 -.86603 .5 760.31 -108.36)"
       d="m355.73 422.95-201.44 116.31-201.45-116.31 0.002-232.61 201.45-116.3 201.44 116.3z" />
    <path
       id="path3759-1"
       style="stroke:#000000;stroke-width:25;fill:none"
       transform="matrix(.5 .86603 -.86603 .5 558.86 -457.27)"
       d="m355.73 422.95-201.44 116.31-201.45-116.31 0.002-232.61 201.45-116.3 201.44 116.3z" />
    <path
       id="path3759-6"
       style="stroke:#000000;stroke-width:25;fill:none"
       transform="matrix(.5 .86603 -.86603 .5 961.75 240.55)"
       d="m355.73 422.95-201.44 116.31-201.45-116.31 0.002-232.61 201.45-116.3 201.44 116.3z" />
    <path
       id="path3759-66"
       style="stroke:#000000;stroke-width:25;fill:none"
       transform="matrix(.5 .86603 -.86603 .5 1163.2 -108.36)"
       d="m355.73 422.95-201.44 116.31-201.45-116.31 0.002-232.61 201.45-116.3 201.44 116.3z" />
    <path
       id="path3759-4"
       style="stroke:#000000;stroke-width:25;fill:none"
       transform="matrix(.5 .86603 -.86603 .5 961.75 -457.27)"
       d="m355.73 422.95-201.44 116.31-201.45-116.31 0.002-232.61 201.45-116.3 201.44 116.3z" />
    <path
       id="path3759-66-3"
       style="stroke:#000000;stroke-width:25;fill:none"
       transform="matrix(.5 .86603 -.86603 .5 558.86 240.55)"
       d="m355.73 422.95-201.44 116.31-201.45-116.31 0.002-232.61 201.45-116.3 201.44 116.3z" />
    <path
       id="path3759-4-7"
       style="stroke:#000000;stroke-width:25;fill:none"
       transform="matrix(.5 .86603 -.86603 .5 357.42 -108.36)"
       d="m355.73 422.95-201.44 116.31-201.45-116.31 0.002-232.61 201.45-116.3 201.44 116.3z" />
    <path
       id="path3759-5"
       style="stroke:#000000;stroke-width:25;fill:none"
       transform="matrix(.5 .86603 -.86603 .5 155.98 240.55)"
       d="m355.73 422.95-201.44 116.31-201.45-116.31 0.002-232.61 201.45-116.3 201.44 116.3z" />
    <path
       id="path3759-1-4"
       style="stroke:#000000;stroke-width:25;fill:none"
       transform="matrix(.5 .86603 -.86603 .5 -45.467 -108.36)"
       d="m355.73 422.95-201.44 116.31-201.45-116.31 0.002-232.61 201.45-116.3 201.44 116.3z" />
    <path
       id="path3759-6-1"
       style="stroke:#000000;stroke-width:25;fill:none"
       transform="matrix(.5 .86603 -.86603 .5 357.42 589.46)"
       d="m355.73 422.95-201.44 116.31-201.45-116.31 0.002-232.61 201.45-116.3 201.44 116.3z" />
    <path
       id="path3759-66-4"
       style="stroke:#000000;stroke-width:25;fill:none"
       transform="matrix(.5 .86603 -.86603 .5 -45.467 589.46)"
       d="m355.73 422.95-201.44 116.31-201.45-116.31 0.002-232.61 201.45-116.3 201.44 116.3z" />
    <path
       id="path3759-4-3"
       style="stroke:#000000;stroke-width:25;fill:none"
       transform="matrix(.5 .86603 -.86603 .5 -246.91 240.55)"
       d="m355.73 422.95-201.44 116.31-201.45-116.31 0.002-232.61 201.45-116.3 201.44 116.3z" />
    <path
       id="path3759-66-31"
       style="stroke:#000000;stroke-width:25;fill:none"
       transform="matrix(.5 .86603 -.86603 .5 155.98 -457.27)"
       d="m355.73 422.95-201.44 116.31-201.45-116.31 0.002-232.61 201.45-116.3 201.44 116.3z" />
    <path
       id="path3759-4-30"
       style="stroke:#000000;stroke-width:25;fill:none"
       transform="matrix(.5 .86603 -.86603 .5 760.31 589.46)"
       d="m355.73 422.95-201.44 116.31-201.45-116.31 0.002-232.61 201.45-116.3 201.44 116.3z" />
    <path
       id="path3759-66-9"
       style="stroke:#000000;stroke-width:25;fill:none"
       transform="matrix(.5 .86603 -.86603 .5 558.86 938.38)"
       d="m355.73 422.95-201.44 116.31-201.45-116.31 0.002-232.61 201.45-116.3 201.44 116.3z" />
    <path
       id="path3759-4-6"
       style="stroke:#000000;stroke-width:25;fill:none"
       transform="matrix(.5 .86603 -.86603 .5 1163.2 589.46)"
       d="m355.73 422.95-201.44 116.31-201.45-116.31 0.002-232.61 201.45-116.3 201.44 116.3z" />
    <path
       id="path3759-66-7"
       style="stroke:#000000;stroke-width:25;fill:none"
       transform="matrix(.5 .86603 -.86603 .5 155.98 938.38)"
       d="m355.73 422.95-201.44 116.31-201.45-116.31 0.002-232.61 201.45-116.3 201.44 116.3z" />
    <path
       id="path3759-4-76"
       style="stroke:#000000;stroke-width:25;fill:none"
       transform="matrix(.5 .86603 -.86603 .5 961.75 938.38)"
       d="m355.73 422.95-201.44 116.31-201.45-116.31 0.002-232.61 201.45-116.3 201.44 116.3z" />
    <path
       id="path3759-4-4"
       style="stroke:#000000;stroke-width:25;fill:none"
       transform="matrix(.5 .86603 -.86603 .5 1364.6 240.55)"
       d="m355.73 422.95-201.44 116.31-201.45-116.31 0.002-232.61 201.45-116.3 201.44 116.3z" />
    <path
       id="path3759-66-1"
       style="stroke:#000000;stroke-width:25;fill:none"
       transform="matrix(.5 .86603 -.86603 .5 1566.1 -108.36)"
       d="m355.73 422.95-201.44 116.31-201.45-116.31 0.002-232.61 201.45-116.3 201.44 116.3z" />
    <path
       id="path3759-4-66"
       style="stroke:#000000;stroke-width:25;fill:none"
       transform="matrix(.5 .86603 -.86603 .5 1364.6 -457.27)"
       d="m355.73 422.95-201.44 116.31-201.45-116.31 0.002-232.61 201.45-116.3 201.44 116.3z" />
    <path
       id="path3759-66-6"
       style="stroke:#000000;stroke-width:25;fill:none"
       transform="matrix(.5 .86603 -.86603 .5 -246.91 938.38)"
       d="m355.73 422.95-201.44 116.31-201.45-116.31 0.002-232.61 201.45-116.3 201.44 116.3z" />
    <path
       id="path3759-4-5"
       style="stroke:#000000;stroke-width:25;fill:none"
       transform="matrix(.5 .86603 -.86603 .5 -448.35 589.46)"
       d="m355.73 422.95-201.44 116.31-201.45-116.31 0.002-232.61 201.45-116.3 201.44 116.3z" />
    <path
       id="path3759-66-0"
       style="stroke:#000000;stroke-width:25;fill:none"
       transform="matrix(.5 .86603 -.86603 .5 -649.8 938.38)"
       d="m355.73 422.95-201.44 116.31-201.45-116.31 0.002-232.61 201.45-116.3 201.44 116.3z" />
    <path
       id="path3759-4-33"
       style="stroke:#000000;stroke-width:25;fill:none"
       transform="matrix(.5 .86603 -.86603 .5 1767.5 -457.27)"
       d="m355.73 422.95-201.44 116.31-201.45-116.31 0.002-232.61 201.45-116.3 201.44 116.3z" />
    <path
       id="path3759-66-2"
       style="stroke:#000000;stroke-width:25;fill:none"
       transform="matrix(.5 .86603 -.86603 .5 1566.1 589.46)"
       d="m355.73 422.95-201.44 116.31-201.45-116.31 0.002-232.61 201.45-116.3 201.44 116.3z" />
    <path
       id="path3759-4-9"
       style="stroke:#000000;stroke-width:25;fill:none"
       transform="matrix(.5 .86603 -.86603 .5 1364.6 938.38)"
       d="m355.73 422.95-201.44 116.31-201.45-116.31 0.002-232.61 201.45-116.3 201.44 116.3z" />
    <path
       id="path3759-66-14"
       style="stroke:#000000;stroke-width:25;fill:none"
       transform="matrix(.5 .86603 -.86603 .5 357.42 1287.3)"
       d="m355.73 422.95-201.44 116.31-201.45-116.31 0.002-232.61 201.45-116.3 201.44 116.3z" />
    <path
       id="path3759-4-91"
       style="stroke:#000000;stroke-width:25;fill:none"
       transform="matrix(.5 .86603 -.86603 .5 760.31 1287.3)"
       d="m355.73 422.95-201.44 116.31-201.45-116.31 0.002-232.61 201.45-116.3 201.44 116.3z" />
    <path
       id="path3759-66-5"
       style="stroke:#000000;stroke-width:25;fill:none"
       transform="matrix(.5 .86603 -.86603 .5 357.42 -806.18)"
       d="m355.73 422.95-201.44 116.31-201.45-116.31 0.002-232.61 201.45-116.3 201.44 116.3z" />
    <path
       id="path3759-4-51"
       style="stroke:#000000;stroke-width:25;fill:none"
       transform="matrix(.5 .86603 -.86603 .5 760.31 -806.18)"
       d="m355.73 422.95-201.44 116.31-201.45-116.31 0.002-232.61 201.45-116.3 201.44 116.3z" />
    <path
       id="path3759-66-49"
       style="stroke:#000000;stroke-width:25;fill:none"
       transform="matrix(.5 .86603 -.86603 .5 -246.91 -457.27)"
       d="m355.73 422.95-201.44 116.31-201.45-116.31 0.002-232.61 201.45-116.3 201.44 116.3z" />
    <path
       id="path3759-4-99"
       style="stroke:#000000;stroke-width:25;fill:none"
       transform="matrix(.5 .86603 -.86603 .5 -448.35 -108.36)"
       d="m355.73 422.95-201.44 116.31-201.45-116.31 0.002-232.61 201.45-116.3 201.44 116.3z" />
    <path
       id="path3759-66-66"
       style="stroke:#000000;stroke-width:25;fill:none"
       transform="matrix(.5 .86603 -.86603 .5 -649.8 240.55)"
       d="m355.73 422.95-201.44 116.31-201.45-116.31 0.002-232.61 201.45-116.3 201.44 116.3z" />
    <path
       id="path3759-4-1"
       style="stroke:#000000;stroke-width:25;fill:none"
       transform="matrix(.5 .86603 -.86603 .5 -45.467 1287.3)"
       d="m355.73 422.95-201.44 116.31-201.45-116.31 0.002-232.61 201.45-116.3 201.44 116.3z" />
    <path
       id="path3759-66-96"
       style="stroke:#000000;stroke-width:25;fill:none"
       transform="matrix(.5 .86603 -.86603 .5 1767.5 240.55)"
       d="m355.73 422.95-201.44 116.31-201.45-116.31 0.002-232.61 201.45-116.3 201.44 116.3z" />
    <path
       id="path3759-4-34"
       style="stroke:#000000;stroke-width:25;fill:none"
       transform="matrix(.5 .86603 -.86603 .5 1163.2 1287.3)"
       d="m355.73 422.95-201.44 116.31-201.45-116.31 0.002-232.61 201.45-116.3 201.44 116.3z" />
    <path
       id="path3759-66-37"
       style="stroke:#000000;stroke-width:25;fill:none"
       transform="matrix(.5 .86603 -.86603 .5 1163.2 -806.18)"
       d="m355.73 422.95-201.44 116.31-201.45-116.31 0.002-232.61 201.45-116.3 201.44 116.3z" />
    <path
       id="path3759-4-40"
       style="stroke:#000000;stroke-width:25;fill:none"
       transform="matrix(.5 .86603 -.86603 .5 -45.467 -806.18)"
       d="m355.73 422.95-201.44 116.31-201.45-116.31 0.002-232.61 201.45-116.3 201.44 116.3z" />
    <path
       id="path3759-66-72"
       style="stroke:#000000;stroke-width:25;fill:none"
       transform="matrix(.5 .86603 -.86603 .5 1969 -108.36)"
       d="m355.73 422.95-201.44 116.31-201.45-116.31 0.002-232.61 201.45-116.3 201.44 116.3z" />
    <path
       id="path3759-4-64"
       style="stroke:#000000;stroke-width:25;fill:none"
       transform="matrix(.5 .86603 -.86603 .5 1566.1 -806.18)"
       d="m355.73 422.95-201.44 116.31-201.45-116.31 0.002-232.61 201.45-116.3 201.44 116.3z" />
    <path
       id="path3759-66-76"
       style="stroke:#000000;stroke-width:25;fill:none"
       transform="matrix(.5 .86603 -.86603 .5 -448.35 1287.3)"
       d="m355.73 422.95-201.44 116.31-201.45-116.31 0.002-232.61 201.45-116.3 201.44 116.3z" />
    <path
       id="path3759-4-0"
       style="stroke:#000000;stroke-width:25;fill:none"
       transform="matrix(.5 .86603 -.86603 .5 -851.24 589.46)"
       d="m355.73 422.95-201.44 116.31-201.45-116.31 0.002-232.61 201.45-116.3 201.44 116.3z" />
    <path
       id="path3759-66-5-1"
       style="stroke:#000000;stroke-width:25;fill:none"
       transform="matrix(.5 .86603 -.86603 .5 155.98 -1155.1)"
       d="m355.73 422.95-201.44 116.31-201.45-116.31 0.002-232.61 201.45-116.3 201.44 116.3z" />
    <path
       id="path3759-4-51-0"
       style="stroke:#000000;stroke-width:25;fill:none"
       transform="matrix(.5 .86603 -.86603 .5 558.86 -1155.1)"
       d="m355.73 422.95-201.44 116.31-201.45-116.31 0.002-232.61 201.45-116.3 201.44 116.3z" />
    <path
       id="path3759-66-37-2"
       style="stroke:#000000;stroke-width:25;fill:none"
       transform="matrix(.5 .86603 -.86603 .5 961.75 -1155.1)"
       d="m355.73 422.95-201.44 116.31-201.45-116.31 0.002-232.61 201.45-116.3 201.44 116.3z" />
    <path
       id="path3759-4-40-1"
       style="stroke:#000000;stroke-width:25;fill:none"
       transform="matrix(.5 .86603 -.86603 .5 -246.91 -1155.1)"
       d="m355.73 422.95-201.44 116.31-201.45-116.31 0.002-232.61 201.45-116.3 201.44 116.3z" />
    <path
       id="path3759-4-64-7"
       style="stroke:#000000;stroke-width:25;fill:none"
       transform="matrix(.5 .86603 -.86603 .5 1364.6 -1155.1)"
       d="m355.73 422.95-201.44 116.31-201.45-116.31 0.002-232.61 201.45-116.3 201.44 116.3z" />
    <path
       id="path3759-66-49-0"
       style="stroke:#000000;stroke-width:25;fill:none"
       transform="matrix(.5 .86603 -.86603 .5 -649.8 -457.27)"
       d="m355.73 422.95-201.44 116.31-201.45-116.31 0.002-232.61 201.45-116.3 201.44 116.3z" />
    <path
       id="path3759-4-99-2"
       style="stroke:#000000;stroke-width:25;fill:none"
       transform="matrix(.5 .86603 -.86603 .5 -851.24 -108.36)"
       d="m355.73 422.95-201.44 116.31-201.45-116.31 0.002-232.61 201.45-116.3 201.44 116.3z" />
    <path
       id="path3759-66-66-3"
       style="stroke:#000000;stroke-width:25;fill:none"
       transform="matrix(.5 .86603 -.86603 .5 -1052.7 240.55)"
       d="m355.73 422.95-201.44 116.31-201.45-116.31 0.002-232.61 201.45-116.3 201.44 116.3z" />
    <path
       id="path3759-4-40-8"
       style="stroke:#000000;stroke-width:25;fill:none"
       transform="matrix(.5 .86603 -.86603 .5 -448.35 -806.18)"
       d="m355.73 422.95-201.44 116.31-201.45-116.31 0.002-232.61 201.45-116.3 201.44 116.3z" />
    <path
       id="path3759-66-2-9"
       style="stroke:#000000;stroke-width:25;fill:none"
       transform="matrix(.5 .86603 -.86603 .5 1969 589.46)"
       d="m355.73 422.95-201.44 116.31-201.45-116.31 0.002-232.61 201.45-116.3 201.44 116.3z" />
    <path
       id="path3759-4-9-5"
       style="stroke:#000000;stroke-width:25;fill:none"
       transform="matrix(.5 .86603 -.86603 .5 1767.5 938.38)"
       d="m355.73 422.95-201.44 116.31-201.45-116.31 0.002-232.61 201.45-116.3 201.44 116.3z" />
    <path
       id="path3759-66-96-2"
       style="stroke:#000000;stroke-width:25;fill:none"
       transform="matrix(.5 .86603 -.86603 .5 2170.4 240.55)"
       d="m355.73 422.95-201.44 116.31-201.45-116.31 0.002-232.61 201.45-116.3 201.44 116.3z" />
    <path
       id="path3759-4-34-6"
       style="stroke:#000000;stroke-width:25;fill:none"
       transform="matrix(.5 .86603 -.86603 .5 1566.1 1287.3)"
       d="m355.73 422.95-201.44 116.31-201.45-116.31 0.002-232.61 201.45-116.3 201.44 116.3z" />
    <path
       id="path3759-66-5-1-7"
       style="stroke:#000000;stroke-width:25;fill:none"
       transform="matrix(.5 .86603 -.86603 .5 155.98 1636.2)"
       d="m355.73 422.95-201.44 116.31-201.45-116.31 0.002-232.61 201.45-116.3 201.44 116.3z" />
    <path
       id="path3759-4-51-0-3"
       style="stroke:#000000;stroke-width:25;fill:none"
       transform="matrix(.5 .86603 -.86603 .5 558.86 1636.2)"
       d="m355.73 422.95-201.44 116.31-201.45-116.31 0.002-232.61 201.45-116.3 201.44 116.3z" />
    <path
       id="path3759-66-37-2-5"
       style="stroke:#000000;stroke-width:25;fill:none"
       transform="matrix(.5 .86603 -.86603 .5 961.75 1636.2)"
       d="m355.73 422.95-201.44 116.31-201.45-116.31 0.002-232.61 201.45-116.3 201.44 116.3z" />
    <path
       id="path3759-4-40-1-4"
       style="stroke:#000000;stroke-width:25;fill:none"
       transform="matrix(.5 .86603 -.86603 .5 -246.91 1636.2)"
       d="m355.73 422.95-201.44 116.31-201.45-116.31 0.002-232.61 201.45-116.3 201.44 116.3z" />
    <path
       id="path3759-4-64-7-1"
       style="stroke:#000000;stroke-width:25;fill:none"
       transform="matrix(.5 .86603 -.86603 .5 1364.6 1636.2)"
       d="m355.73 422.95-201.44 116.31-201.45-116.31 0.002-232.61 201.45-116.3 201.44 116.3z" />
    <path
       id="path3759-66-5-7"
       style="stroke:#000000;stroke-width:25;fill:none"
       transform="matrix(.5 .86603 -.86603 .5 357.42 -1504)"
       d="m355.73 422.95-201.44 116.31-201.45-116.31 0.002-232.61 201.45-116.3 201.44 116.3z" />
    <path
       id="path3759-4-51-7"
       style="stroke:#000000;stroke-width:25;fill:none"
       transform="matrix(.5 .86603 -.86603 .5 760.31 -1504)"
       d="m355.73 422.95-201.44 116.31-201.45-116.31 0.002-232.61 201.45-116.3 201.44 116.3z" />
    <path
       id="path3759-66-37-8"
       style="stroke:#000000;stroke-width:25;fill:none"
       transform="matrix(.5 .86603 -.86603 .5 1163.2 -1504)"
       d="m355.73 422.95-201.44 116.31-201.45-116.31 0.002-232.61 201.45-116.3 201.44 116.3z" />
    <path
       id="path3759-4-40-87"
       style="stroke:#000000;stroke-width:25;fill:none"
       transform="matrix(.5 .86603 -.86603 .5 -45.467 -1504)"
       d="m355.73 422.95-201.44 116.31-201.45-116.31 0.002-232.61 201.45-116.3 201.44 116.3z" />
    <path
       id="path3759-4-64-8"
       style="stroke:#000000;stroke-width:25;fill:none"
       transform="matrix(.5 .86603 -.86603 .5 1566.1 -1504)"
       d="m355.73 422.95-201.44 116.31-201.45-116.31 0.002-232.61 201.45-116.3 201.44 116.3z" />
    <path
       id="path3759-4-40-8-9"
       style="stroke:#000000;stroke-width:25;fill:none"
       transform="matrix(.5 .86603 -.86603 .5 -448.35 -1504)"
       d="m355.73 422.95-201.44 116.31-201.45-116.31 0.002-232.61 201.45-116.3 201.44 116.3z" />
    <path
       id="path3759-66-5-18"
       style="stroke:#000000;stroke-width:25;fill:none"
       transform="matrix(.5 .86603 -.86603 .5 357.42 1985.1)"
       d="m355.73 422.95-201.44 116.31-201.45-116.31 0.002-232.61 201.45-116.3 201.44 116.3z" />
    <path
       id="path3759-4-51-2"
       style="stroke:#000000;stroke-width:25;fill:none"
       transform="matrix(.5 .86603 -.86603 .5 760.31 1985.1)"
       d="m355.73 422.95-201.44 116.31-201.45-116.31 0.002-232.61 201.45-116.3 201.44 116.3z" />
    <path
       id="path3759-66-37-80"
       style="stroke:#000000;stroke-width:25;fill:none"
       transform="matrix(.5 .86603 -.86603 .5 1163.2 1985.1)"
       d="m355.73 422.95-201.44 116.31-201.45-116.31 0.002-232.61 201.45-116.3 201.44 116.3z" />
    <path
       id="path3759-4-40-3"
       style="stroke:#000000;stroke-width:25;fill:none"
       transform="matrix(.5 .86603 -.86603 .5 -45.467 1985.1)"
       d="m355.73 422.95-201.44 116.31-201.45-116.31 0.002-232.61 201.45-116.3 201.44 116.3z" />
    <path
       id="path3759-4-64-3"
       style="stroke:#000000;stroke-width:25;fill:none"
       transform="matrix(.5 .86603 -.86603 .5 1566.1 1985.1)"
       d="m355.73 422.95-201.44 116.31-201.45-116.31 0.002-232.61 201.45-116.3 201.44 116.3z" />
    <path
       id="path3759-4-40-8-92"
       style="stroke:#000000;stroke-width:25;fill:none"
       transform="matrix(.5 .86603 -.86603 .5 -448.35 1985.1)"
       d="m355.73 422.95-201.44 116.31-201.45-116.31 0.002-232.61 201.45-116.3 201.44 116.3z" />
    <path
       id="path3759-66-2-9-5"
       style="stroke:#000000;stroke-width:25;fill:none"
       transform="matrix(.5 .86603 -.86603 .5 2371.9 589.47)"
       d="m355.73 422.95-201.44 116.31-201.45-116.31 0.002-232.61 201.45-116.3 201.44 116.3z" />
    <path
       id="path3759-4-9-5-3"
       style="stroke:#000000;stroke-width:25;fill:none"
       transform="matrix(.5 .86603 -.86603 .5 2170.4 938.38)"
       d="m355.73 422.95-201.44 116.31-201.45-116.31 0.002-232.61 201.45-116.3 201.44 116.3z" />
    <path
       id="path3759-66-96-2-1"
       style="stroke:#000000;stroke-width:25;fill:none"
       transform="matrix(.5 .86603 -.86603 .5 2573.3 240.55)"
       d="m355.73 422.95-201.44 116.31-201.45-116.31 0.002-232.61 201.45-116.3 201.44 116.3z" />
    <path
       id="path3759-4-34-6-9"
       style="stroke:#000000;stroke-width:25;fill:none"
       transform="matrix(.5 .86603 -.86603 .5 1969 1287.3)"
       d="m355.73 422.95-201.44 116.31-201.45-116.31 0.002-232.61 201.45-116.3 201.44 116.3z" />
    <path
       id="path3759-4-64-7-1-4"
       style="stroke:#000000;stroke-width:25;fill:none"
       transform="matrix(.5 .86603 -.86603 .5 1767.5 1636.2)"
       d="m355.73 422.95-201.44 116.31-201.45-116.31 0.002-232.61 201.45-116.3 201.44 116.3z" />
    <path
       id="path3759-4-33-2"
       style="stroke:#000000;stroke-width:25;fill:none"
       transform="matrix(.5 .86603 -.86603 .5 2170.4 -457.27)"
       d="m355.73 422.95-201.44 116.31-201.45-116.31 0.002-232.61 201.45-116.3 201.44 116.3z" />
    <path
       id="path3759-66-72-9"
       style="stroke:#000000;stroke-width:25;fill:none"
       transform="matrix(.5 .86603 -.86603 .5 2371.9 -108.36)"
       d="m355.73 422.95-201.44 116.31-201.45-116.31 0.002-232.61 201.45-116.3 201.44 116.3z" />
    <path
       id="path3759-4-64-6"
       style="stroke:#000000;stroke-width:25;fill:none"
       transform="matrix(.5 .86603 -.86603 .5 1969 -806.18)"
       d="m355.73 422.95-201.44 116.31-201.45-116.31 0.002-232.61 201.45-116.3 201.44 116.3z" />
    <path
       id="path3759-4-64-7-13"
       style="stroke:#000000;stroke-width:25;fill:none"
       transform="matrix(.5 .86603 -.86603 .5 1767.5 -1155.1)"
       d="m355.73 422.95-201.44 116.31-201.45-116.31 0.002-232.61 201.45-116.3 201.44 116.3z" />
    <path
       id="path3759-4-33-5"
       style="stroke:#000000;stroke-width:25;fill:none"
       transform="matrix(.5 .86603 -.86603 .5 -851.24 1287.3)"
       d="m355.73 422.95-201.44 116.31-201.45-116.31 0.002-232.61 201.45-116.3 201.44 116.3z" />
    <path
       id="path3759-66-72-7"
       style="stroke:#000000;stroke-width:25;fill:none"
       transform="matrix(.5 .86603 -.86603 .5 -649.8 1636.2)"
       d="m355.73 422.95-201.44 116.31-201.45-116.31 0.002-232.61 201.45-116.3 201.44 116.3z" />
    <path
       id="path3759-4-64-78"
       style="stroke:#000000;stroke-width:25;fill:none"
       transform="matrix(.5 .86603 -.86603 .5 -1052.7 938.38)"
       d="m355.73 422.95-201.44 116.31-201.45-116.31 0.002-232.61 201.45-116.3 201.44 116.3z" />
    <path
       id="path3759-4-64-7-7"
       style="stroke:#000000;stroke-width:25;fill:none"
       transform="matrix(.5 .86603 -.86603 .5 -1254.1 589.47)"
       d="m355.73 422.95-201.44 116.31-201.45-116.31 0.002-232.61 201.45-116.3 201.44 116.3z" />
    <path
       id="path3759-66-37-8-1"
       style="stroke:#000000;stroke-width:25;fill:none"
       transform="matrix(.5 .86603 -.86603 .5 -1455.6 240.55)"
       d="m355.73 422.95-201.44 116.31-201.45-116.31 0.002-232.61 201.45-116.3 201.44 116.3z" />
    <path
       id="path3759-4-40-1-9"
       style="stroke:#000000;stroke-width:25;fill:none"
       transform="matrix(.5 .86603 -.86603 .5 -649.8 -1155.1)"
       d="m355.73 422.95-201.44 116.31-201.45-116.31 0.002-232.61 201.45-116.3 201.44 116.3z" />
    <path
       id="path3759-66-49-0-7"
       style="stroke:#000000;stroke-width:25;fill:none"
       transform="matrix(.5 .86603 -.86603 .5 -1052.7 -457.27)"
       d="m355.73 422.95-201.44 116.31-201.45-116.31 0.002-232.61 201.45-116.3 201.44 116.3z" />
    <path
       id="path3759-4-99-2-6"
       style="stroke:#000000;stroke-width:25;fill:none"
       transform="matrix(.5 .86603 -.86603 .5 -1254.1 -108.36)"
       d="m355.73 422.95-201.44 116.31-201.45-116.31 0.002-232.61 201.45-116.3 201.44 116.3z" />
    <path
       id="path3759-4-40-8-4"
       style="stroke:#000000;stroke-width:25;fill:none"
       transform="matrix(.5 .86603 -.86603 .5 -851.24 -806.18)"
       d="m355.73 422.95-201.44 116.31-201.45-116.31 0.002-232.61 201.45-116.3 201.44 116.3z" />
    <path
       id="path3759-66-5-1-0"
       style="stroke:#000000;stroke-width:25;fill:none"
       transform="matrix(.5 .86603 -.86603 .5 155.98 -1852.9)"
       d="m355.73 422.95-201.44 116.31-201.45-116.31 0.002-232.61 201.45-116.3 201.44 116.3z" />
    <path
       id="path3759-4-51-0-2"
       style="stroke:#000000;stroke-width:25;fill:none"
       transform="matrix(.5 .86603 -.86603 .5 558.86 -1852.9)"
       d="m355.73 422.95-201.44 116.31-201.45-116.31 0.002-232.61 201.45-116.3 201.44 116.3z" />
    <path
       id="path3759-66-37-2-8"
       style="stroke:#000000;stroke-width:25;fill:none"
       transform="matrix(.5 .86603 -.86603 .5 961.75 -1852.9)"
       d="m355.73 422.95-201.44 116.31-201.45-116.31 0.002-232.61 201.45-116.3 201.44 116.3z" />
    <path
       id="path3759-4-40-1-47"
       style="stroke:#000000;stroke-width:25;fill:none"
       transform="matrix(.5 .86603 -.86603 .5 -246.91 -1852.9)"
       d="m355.73 422.95-201.44 116.31-201.45-116.31 0.002-232.61 201.45-116.3 201.44 116.3z" />
    <path
       id="path3759-4-64-7-14"
       style="stroke:#000000;stroke-width:25;fill:none"
       transform="matrix(.5 .86603 -.86603 .5 1364.6 -1852.9)"
       d="m355.73 422.95-201.44 116.31-201.45-116.31 0.002-232.61 201.45-116.3 201.44 116.3z" />
    <path
       id="path3759-4-64-7-13-4"
       style="stroke:#000000;stroke-width:25;fill:none"
       transform="matrix(.5 .86603 -.86603 .5 1767.5 -1852.9)"
       d="m355.73 422.95-201.44 116.31-201.45-116.31 0.002-232.61 201.45-116.3 201.44 116.3z" />
    <path
       id="path3759-4-40-1-9-8"
       style="stroke:#000000;stroke-width:25;fill:none"
       transform="matrix(.5 .86603 -.86603 .5 -649.8 -1852.9)"
       d="m355.73 422.95-201.44 116.31-201.45-116.31 0.002-232.61 201.45-116.3 201.44 116.3z" />
    <path
       id="path3759-66-5-1-5"
       style="stroke:#000000;stroke-width:25;fill:none"
       transform="matrix(.5 .86603 -.86603 .5 155.98 2334)"
       d="m355.73 422.95-201.44 116.31-201.45-116.31 0.002-232.61 201.45-116.3 201.44 116.3z" />
    <path
       id="path3759-4-51-0-8"
       style="stroke:#000000;stroke-width:25;fill:none"
       transform="matrix(.5 .86603 -.86603 .5 558.86 2334)"
       d="m355.73 422.95-201.44 116.31-201.45-116.31 0.002-232.61 201.45-116.3 201.44 116.3z" />
    <path
       id="path3759-66-37-2-88"
       style="stroke:#000000;stroke-width:25;fill:none"
       transform="matrix(.5 .86603 -.86603 .5 961.75 2334)"
       d="m355.73 422.95-201.44 116.31-201.45-116.31 0.002-232.61 201.45-116.3 201.44 116.3z" />
    <path
       id="path3759-4-40-1-1"
       style="stroke:#000000;stroke-width:25;fill:none"
       transform="matrix(.5 .86603 -.86603 .5 -246.91 2334)"
       d="m355.73 422.95-201.44 116.31-201.45-116.31 0.002-232.61 201.45-116.3 201.44 116.3z" />
    <path
       id="path3759-4-64-7-6"
       style="stroke:#000000;stroke-width:25;fill:none"
       transform="matrix(.5 .86603 -.86603 .5 1364.6 2334)"
       d="m355.73 422.95-201.44 116.31-201.45-116.31 0.002-232.61 201.45-116.3 201.44 116.3z" />
    <path
       id="path3759-4-64-7-13-49"
       style="stroke:#000000;stroke-width:25;fill:none"
       transform="matrix(.5 .86603 -.86603 .5 1767.5 2334)"
       d="m355.73 422.95-201.44 116.31-201.45-116.31 0.002-232.61 201.45-116.3 201.44 116.3z" />
    <path
       id="path3759-4-40-1-9-0"
       style="stroke:#000000;stroke-width:25;fill:none"
       transform="matrix(.5 .86603 -.86603 .5 -649.8 2334)"
       d="m355.73 422.95-201.44 116.31-201.45-116.31 0.002-232.61 201.45-116.3 201.44 116.3z" />
    <path
       id="path3759-4-40-8-9-6"
       style="stroke:#000000;stroke-width:25;fill:none"
       transform="matrix(.5 .86603 -.86603 .5 -851.24 -1504)"
       d="m355.73 422.95-201.44 116.31-201.45-116.31 0.002-232.61 201.45-116.3 201.44 116.3z" />
    <path
       id="path3759-4-40-8-92-9"
       style="stroke:#000000;stroke-width:25;fill:none"
       transform="matrix(.5 .86603 -.86603 .5 -851.24 1985.1)"
       d="m355.73 422.95-201.44 116.31-201.45-116.31 0.002-232.61 201.45-116.3 201.44 116.3z" />
    <path
       id="path3759-4-33-5-6"
       style="stroke:#000000;stroke-width:25;fill:none"
       transform="matrix(.5 .86603 -.86603 .5 -1254.1 1287.3)"
       d="m355.73 422.95-201.44 116.31-201.45-116.31 0.002-232.61 201.45-116.3 201.44 116.3z" />
    <path
       id="path3759-66-72-7-4"
       style="stroke:#000000;stroke-width:25;fill:none"
       transform="matrix(.5 .86603 -.86603 .5 -1052.7 1636.2)"
       d="m355.73 422.95-201.44 116.31-201.45-116.31 0.002-232.61 201.45-116.3 201.44 116.3z" />
    <path
       id="path3759-4-64-78-1"
       style="stroke:#000000;stroke-width:25;fill:none"
       transform="matrix(.5 .86603 -.86603 .5 -1455.6 938.38)"
       d="m355.73 422.95-201.44 116.31-201.45-116.31 0.002-232.61 201.45-116.3 201.44 116.3z" />
    <path
       id="path3759-4-64-7-7-0"
       style="stroke:#000000;stroke-width:25;fill:none"
       transform="matrix(.5 .86603 -.86603 .5 -1657 589.47)"
       d="m355.73 422.95-201.44 116.31-201.45-116.31 0.002-232.61 201.45-116.3 201.44 116.3z" />
    <path
       id="path3759-66-37-8-1-6"
       style="stroke:#000000;stroke-width:25;fill:none"
       transform="matrix(.5 .86603 -.86603 .5 -1858.5 240.55)"
       d="m355.73 422.95-201.44 116.31-201.45-116.31 0.002-232.61 201.45-116.3 201.44 116.3z" />
    <path
       id="path3759-4-40-1-9-5"
       style="stroke:#000000;stroke-width:25;fill:none"
       transform="matrix(.5 .86603 -.86603 .5 -1052.7 -1155.1)"
       d="m355.73 422.95-201.44 116.31-201.45-116.31 0.002-232.61 201.45-116.3 201.44 116.3z" />
    <path
       id="path3759-66-49-0-7-0"
       style="stroke:#000000;stroke-width:25;fill:none"
       transform="matrix(.5 .86603 -.86603 .5 -1455.6 -457.27)"
       d="m355.73 422.95-201.44 116.31-201.45-116.31 0.002-232.61 201.45-116.3 201.44 116.3z" />
    <path
       id="path3759-4-99-2-6-2"
       style="stroke:#000000;stroke-width:25;fill:none"
       transform="matrix(.5 .86603 -.86603 .5 -1657 -108.36)"
       d="m355.73 422.95-201.44 116.31-201.45-116.31 0.002-232.61 201.45-116.3 201.44 116.3z" />
    <path
       id="path3759-4-40-8-4-4"
       style="stroke:#000000;stroke-width:25;fill:none"
       transform="matrix(.5 .86603 -.86603 .5 -1254.1 -806.18)"
       d="m355.73 422.95-201.44 116.31-201.45-116.31 0.002-232.61 201.45-116.3 201.44 116.3z" />
    <path
       id="path3759-4-64-8-4"
       style="stroke:#000000;stroke-width:25;fill:none"
       transform="matrix(.5 .86603 -.86603 .5 1969 -1504)"
       d="m355.73 422.95-201.44 116.31-201.45-116.31 0.002-232.61 201.45-116.3 201.44 116.3z" />
    <path
       id="path3759-4-64-3-7"
       style="stroke:#000000;stroke-width:25;fill:none"
       transform="matrix(.5 .86603 -.86603 .5 1969 1985.1)"
       d="m355.73 422.95-201.44 116.31-201.45-116.31 0.002-232.61 201.45-116.3 201.44 116.3z" />
    <path
       id="path3759-66-2-9-5-2"
       style="stroke:#000000;stroke-width:25;fill:none"
       transform="matrix(.5 .86603 -.86603 .5 2774.7 589.47)"
       d="m355.73 422.95-201.44 116.31-201.45-116.31 0.002-232.61 201.45-116.3 201.44 116.3z" />
    <path
       id="path3759-4-9-5-3-8"
       style="stroke:#000000;stroke-width:25;fill:none"
       transform="matrix(.5 .86603 -.86603 .5 2573.3 938.38)"
       d="m355.73 422.95-201.44 116.31-201.45-116.31 0.002-232.61 201.45-116.3 201.44 116.3z" />
    <path
       id="path3759-66-96-2-1-8"
       style="stroke:#000000;stroke-width:25;fill:none"
       transform="matrix(.5 .86603 -.86603 .5 2976.2 240.55)"
       d="m355.73 422.95-201.44 116.31-201.45-116.31 0.002-232.61 201.45-116.3 201.44 116.3z" />
    <path
       id="path3759-4-34-6-9-6"
       style="stroke:#000000;stroke-width:25;fill:none"
       transform="matrix(.5 .86603 -.86603 .5 2371.9 1287.3)"
       d="m355.73 422.95-201.44 116.31-201.45-116.31 0.002-232.61 201.45-116.3 201.44 116.3z" />
    <path
       id="path3759-4-64-7-1-4-9"
       style="stroke:#000000;stroke-width:25;fill:none"
       transform="matrix(.5 .86603 -.86603 .5 2170.4 1636.2)"
       d="m355.73 422.95-201.44 116.31-201.45-116.31 0.002-232.61 201.45-116.3 201.44 116.3z" />
    <path
       id="path3759-4-33-2-8"
       style="stroke:#000000;stroke-width:25;fill:none"
       transform="matrix(.5 .86603 -.86603 .5 2573.3 -457.27)"
       d="m355.73 422.95-201.44 116.31-201.45-116.31 0.002-232.61 201.45-116.3 201.44 116.3z" />
    <path
       id="path3759-66-72-9-6"
       style="stroke:#000000;stroke-width:25;fill:none"
       transform="matrix(.5 .86603 -.86603 .5 2774.7 -108.36)"
       d="m355.73 422.95-201.44 116.31-201.45-116.31 0.002-232.61 201.45-116.3 201.44 116.3z" />
    <path
       id="path3759-4-64-6-9"
       style="stroke:#000000;stroke-width:25;fill:none"
       transform="matrix(.5 .86603 -.86603 .5 2371.9 -806.18)"
       d="m355.73 422.95-201.44 116.31-201.45-116.31 0.002-232.61 201.45-116.3 201.44 116.3z" />
    <path
       id="path3759-4-64-7-13-1"
       style="stroke:#000000;stroke-width:25;fill:none"
       transform="matrix(.5 .86603 -.86603 .5 2170.4 -1155.1)"
       d="m355.73 422.95-201.44 116.31-201.45-116.31 0.002-232.61 201.45-116.3 201.44 116.3z" />
  </g>
  <metadata
     id="metadata153">
    <rdf:RDF>
      <cc:Work>
        <dc:format>image/svg+xml</dc:format>
        <dc:type
           rdf:resource="http://purl.org/dc/dcmitype/StillImage" />
        <cc:license
           rdf:resource="http://creativecommons.org/licenses/publicdomain/" />
        <dc:publisher>
          <cc:Agent
             rdf:about="http://openclipart.org/">
            <dc:title>Openclipart</dc:title>
          </cc:Agent>
        </dc:publisher>
        <dc:title></dc:title>
        <dc:date>2011-09-05T07:06:02</dc:date>
        <dc:description />
        <dc:source>https://openclipart.org/detail/159145/hexagon-pattern-by-johnabruce@gmail.com</dc:source>
        <dc:creator>
          <cc:Agent>
            <dc:title>johnabruce@gmail.com</dc:title>
          </cc:Agent>
        </dc:creator>
        <dc:subject>
          <rdf:Bag>
            <rdf:li>bees</rdf:li>
            <rdf:li>geometry</rdf:li>
            <rdf:li>hexagon</rdf:li>
            <rdf:li>honey</rdf:li>
            <rdf:li>honeycomb</rdf:li>
            <rdf:li>pattern</rdf:li>
          </rdf:Bag>
        </dc:subject>
      </cc:Work>
      <cc:License
         rdf:about="http://creativecommons.org/licenses/publicdomain/">
        <cc:permits
           rdf:resource="http://creativecommons.org/ns#Reproduction" />
        <cc:permits
           rdf:resource="http://creativecommons.org/ns#Distribution" />
        <cc:permits
           rdf:resource="http://creativecommons.org/ns#DerivativeWorks" />
      </cc:License>
    </rdf:RDF>
  </metadata>
</svg>
